<svg width="21" height="21" viewBox="0 0 21 21" fill="none" xmlns="http://www.w3.org/2000/svg">
<path d="M17.092 9.40048C16.8829 7.89669 16.1853 6.50334 15.1065 5.43504C14.0277 4.36673 12.6276 3.68273 11.1218 3.48839C9.77706 3.3134 8.41057 3.53748 7.19216 4.13279C5.97375 4.72809 4.95717 5.66835 4.26878 6.83669M3.41846 11.1097C3.61616 12.5327 4.25172 13.8589 5.23701 14.9045C6.2223 15.95 7.5085 16.6631 8.91727 16.9449C10.326 17.2266 11.7876 17.0631 13.0992 16.4769C14.4108 15.8907 15.5076 14.911 16.2374 13.6735" stroke="#F97272" stroke-width="2" stroke-linecap="round" stroke-linejoin="round"/>
<path d="M15.3828 13.6734C15.3828 13.9001 15.4728 14.1174 15.6331 14.2777C15.7934 14.438 16.0107 14.528 16.2374 14.528C16.4641 14.528 16.6814 14.438 16.8417 14.2777C17.002 14.1174 17.092 13.9001 17.092 13.6734C17.092 13.4468 17.002 13.2294 16.8417 13.0691C16.6814 12.9089 16.4641 12.8188 16.2374 12.8188C16.0107 12.8188 15.7934 12.9089 15.6331 13.0691C15.4728 13.2294 15.3828 13.4468 15.3828 13.6734ZM3.41846 6.83665C3.41846 7.06331 3.50849 7.28067 3.66876 7.44094C3.82903 7.60121 4.0464 7.69125 4.27305 7.69125C4.49971 7.69125 4.71708 7.60121 4.87734 7.44094C5.03761 7.28067 5.12765 7.06331 5.12765 6.83665C5.12765 6.61 5.03761 6.39263 4.87734 6.23236C4.71708 6.07209 4.49971 5.98206 4.27305 5.98206C4.0464 5.98206 3.82903 6.07209 3.66876 6.23236C3.50849 6.39263 3.41846 6.61 3.41846 6.83665ZM7.69144 10.255C7.69144 10.935 7.96155 11.5871 8.44235 12.0679C8.92316 12.5487 9.57527 12.8188 10.2552 12.8188C10.9352 12.8188 11.5873 12.5487 12.0681 12.0679C12.5489 11.5871 12.819 10.935 12.819 10.255C12.819 9.57508 12.5489 8.92297 12.0681 8.44216C11.5873 7.96136 10.9352 7.69125 10.2552 7.69125C9.57527 7.69125 8.92316 7.96136 8.44235 8.44216C7.96155 8.92297 7.69144 9.57508 7.69144 10.255Z" stroke="#F97272" stroke-width="2" stroke-linecap="round" stroke-linejoin="round"/>
</svg>
