<svg width="87" height="23" viewBox="0 0 87 23" fill="none" xmlns="http://www.w3.org/2000/svg">
<path d="M17.092 10.6454C16.8829 9.14156 16.1853 7.74821 15.1065 6.67991C14.0277 5.6116 12.6276 4.9276 11.1218 4.73326C9.77706 4.55827 8.41057 4.78236 7.19216 5.37766C5.97375 5.97296 4.95717 6.91322 4.26878 8.08157M3.41846 12.3545C3.61616 13.7775 4.25172 15.1038 5.23701 16.1493C6.2223 17.1949 7.5085 17.908 8.91727 18.1898C10.326 18.4715 11.7876 18.308 13.0992 17.7218C14.4108 17.1356 15.5076 16.1558 16.2374 14.9183" stroke="#F97272" stroke-width="2" stroke-linecap="round" stroke-linejoin="round"/>
<path d="M15.3828 14.9183C15.3828 15.1449 15.4728 15.3623 15.6331 15.5226C15.7934 15.6829 16.0107 15.7729 16.2374 15.7729C16.4641 15.7729 16.6814 15.6829 16.8417 15.5226C17.002 15.3623 17.092 15.1449 17.092 14.9183C17.092 14.6916 17.002 14.4743 16.8417 14.314C16.6814 14.1537 16.4641 14.0637 16.2374 14.0637C16.0107 14.0637 15.7934 14.1537 15.6331 14.314C15.4728 14.4743 15.3828 14.6916 15.3828 14.9183ZM3.41846 8.08153C3.41846 8.30818 3.50849 8.52555 3.66876 8.68582C3.82903 8.84608 4.0464 8.93612 4.27305 8.93612C4.49971 8.93612 4.71708 8.84608 4.87734 8.68582C5.03761 8.52555 5.12765 8.30818 5.12765 8.08153C5.12765 7.85487 5.03761 7.6375 4.87734 7.47723C4.71708 7.31697 4.49971 7.22693 4.27305 7.22693C4.0464 7.22693 3.82903 7.31697 3.66876 7.47723C3.50849 7.6375 3.41846 7.85487 3.41846 8.08153ZM7.69144 11.4999C7.69144 12.1799 7.96155 12.832 8.44235 13.3128C8.92316 13.7936 9.57527 14.0637 10.2552 14.0637C10.9352 14.0637 11.5873 13.7936 12.0681 13.3128C12.5489 12.832 12.819 12.1799 12.819 11.4999C12.819 10.82 12.5489 10.1678 12.0681 9.68704C11.5873 9.20623 10.9352 8.93612 10.2552 8.93612C9.57527 8.93612 8.92316 9.20623 8.44235 9.68704C7.96155 10.1678 7.69144 10.82 7.69144 11.4999Z" stroke="#F97272" stroke-width="2" stroke-linecap="round" stroke-linejoin="round"/>
<path d="M25.1251 18V5.69381H33.1584V7.86449H27.4496V10.4966H32.1328V12.6673H27.4496V15.8293H33.1584V18H25.1251ZM37.7021 18L34.3521 8.77036H36.6766L38.8644 15.1627L41.0522 8.77036H43.3767L40.0266 18H37.7021ZM48.8773 18.2564C47.9316 18.2564 47.0969 18.0541 46.3733 17.6496C45.6555 17.2394 45.0915 16.6782 44.6812 15.9661C44.2767 15.2482 44.0745 14.4278 44.0745 13.5048C44.0745 12.4964 44.2739 11.619 44.6727 10.8727C45.0715 10.1263 45.6213 9.54804 46.3221 9.13784C47.0228 8.72193 47.829 8.51398 48.7406 8.51398C49.7091 8.51398 50.5324 8.74187 51.2104 9.19766C51.8883 9.65344 52.3897 10.2944 52.7145 11.1205C53.0392 11.9466 53.1531 12.918 53.0563 14.0347H50.7574V13.1801C50.7574 12.24 50.6065 11.5649 50.3045 11.1547C50.0082 10.7388 49.5211 10.5308 48.8431 10.5308C48.0512 10.5308 47.4672 10.773 47.0912 11.2572C46.7209 11.7358 46.5357 12.4451 46.5357 13.3852C46.5357 14.2455 46.7209 14.9121 47.0912 15.3849C47.4672 15.8521 48.017 16.0857 48.7406 16.0857C49.1964 16.0857 49.5866 15.986 49.9114 15.7866C50.2361 15.5872 50.484 15.2995 50.6549 14.9235L52.9794 15.59C52.6318 16.4332 52.0821 17.0884 51.33 17.5556C50.5837 18.0228 49.7661 18.2564 48.8773 18.2564ZM45.8179 14.0347V12.3084H51.9368V14.0347H45.8179ZM61.0254 18V13.6416C61.0254 13.4308 61.014 13.163 60.9912 12.8382C60.9684 12.5078 60.8972 12.1773 60.7776 11.8469C60.6579 11.5165 60.4614 11.2401 60.1879 11.0179C59.9201 10.7958 59.5384 10.6847 59.0427 10.6847C58.8433 10.6847 58.6297 10.716 58.4018 10.7787C58.1739 10.8413 57.9603 10.9638 57.7608 11.1461C57.5614 11.3228 57.3962 11.5848 57.2652 11.9324C57.1398 12.2799 57.0772 12.7414 57.0772 13.3168L55.744 12.6844C55.744 11.9552 55.8921 11.2715 56.1884 10.6334C56.4846 9.99528 56.929 9.47967 57.5216 9.08656C58.1198 8.69345 58.8718 8.49689 59.7777 8.49689C60.5013 8.49689 61.0909 8.61938 61.5467 8.86437C62.0025 9.10935 62.3557 9.41985 62.6064 9.79587C62.8628 10.1719 63.0451 10.565 63.1533 10.9752C63.2616 11.3797 63.3271 11.7501 63.3499 12.0862C63.3727 12.4223 63.3841 12.6673 63.3841 12.8211V18H61.0254ZM54.7185 18V8.77036H56.7866V11.8298H57.0772V18H54.7185ZM71.1394 18C70.5013 18.1196 69.8746 18.1709 69.2593 18.1538C68.6497 18.1424 68.1028 18.037 67.6185 17.8376C67.1399 17.6325 66.7753 17.3049 66.5246 16.8548C66.2967 16.4332 66.1771 16.0059 66.1657 15.5729C66.1543 15.1343 66.1486 14.6386 66.1486 14.0859V6.20657H68.4731V13.9492C68.4731 14.3081 68.4759 14.6329 68.4816 14.9235C68.493 15.2083 68.5528 15.4362 68.6611 15.6071C68.8662 15.9319 69.1938 16.1085 69.6439 16.137C70.094 16.1655 70.5925 16.1427 71.1394 16.0686V18ZM64.5761 10.565V8.77036H71.1394V10.565H64.5761ZM73.3671 18V5.43743H75.6916V18H73.3671ZM79.433 22.1021L81.2106 17.2138L81.2448 18.6495L77.2281 8.77036H79.6381L82.3386 15.761H81.7917L84.4751 8.77036H86.7996L81.5866 22.1021H79.433Z" fill="#F97272"/>
</svg>
